<svg xmlns="http://www.w3.org/2000/svg" xmlns:xlink="http://www.w3.org/1999/xlink" viewBox="0 0 622.18 293.04"><defs><style>.cls-1,.cls-10,.cls-11,.cls-12,.cls-13,.cls-14,.cls-15,.cls-16,.cls-2,.cls-3,.cls-4,.cls-5,.cls-6,.cls-7,.cls-8,.cls-9{stroke:#070707;}.cls-1,.cls-10,.cls-11,.cls-12,.cls-13,.cls-14,.cls-15,.cls-16,.cls-17,.cls-18,.cls-2,.cls-3,.cls-4,.cls-5,.cls-6,.cls-7,.cls-8,.cls-9{stroke-miterlimit:10;}.cls-1{fill:url(#linear-gradient);}.cls-2{fill:url(#linear-gradient-2);}.cls-3{fill:url(#linear-gradient-3);}.cls-4{fill:url(#linear-gradient-4);}.cls-5{fill:url(#linear-gradient-5);}.cls-6{stroke-width:2px;fill:url(#linear-gradient-6);}.cls-7{fill:url(#linear-gradient-7);}.cls-8{fill:url(#linear-gradient-8);}.cls-9{fill:url(#linear-gradient-9);}.cls-10{fill:url(#linear-gradient-10);}.cls-11{fill:url(#linear-gradient-11);}.cls-12{fill:url(#linear-gradient-12);}.cls-13{fill:url(#linear-gradient-13);}.cls-14{fill:url(#linear-gradient-14);}.cls-15{fill:url(#linear-gradient-15);}.cls-16{fill:url(#linear-gradient-16);}.cls-17,.cls-18{fill:none;stroke:#0c0c0c;}.cls-18{stroke-dasharray:1.91 1.91;}.cls-19{font-size:8px;fill:#fff;font-family:Montserrat-ExtraBold, Montserrat ExtraBold;font-weight:800;}.cls-20{letter-spacing:0.01em;}.cls-21{letter-spacing:-0.08em;}.cls-22{letter-spacing:0.02em;}.cls-23{letter-spacing:0em;}.cls-24{letter-spacing:-0.03em;}.cls-25{letter-spacing:-0.05em;}.cls-26{letter-spacing:-0.06em;}.cls-27{letter-spacing:0em;}.cls-28{letter-spacing:-0.01em;}.cls-29{letter-spacing:0.02em;}.cls-30{letter-spacing:-0.07em;}.cls-31{letter-spacing:-0.02em;}.cls-32{letter-spacing:-0.02em;}.cls-33{letter-spacing:0.01em;}.cls-34{letter-spacing:-0.04em;}.cls-35{letter-spacing:-0.01em;}.cls-36{letter-spacing:-0.04em;}.cls-37{letter-spacing:0.01em;}.cls-38{letter-spacing:0.01em;}.cls-39{letter-spacing:-0.01em;}.cls-40{letter-spacing:0.02em;}.cls-41{letter-spacing:-0.02em;}.cls-42{letter-spacing:-0.08em;}</style><linearGradient id="linear-gradient" x1="257.59" y1="15.8" x2="365.77" y2="15.8" gradientUnits="userSpaceOnUse"><stop offset="0" stop-color="#3172a5"/><stop offset="1" stop-color="#2c2f74"/></linearGradient><linearGradient id="linear-gradient-2" x1="257.59" y1="68.09" x2="365.77" y2="68.09" xlink:href="#linear-gradient"/><linearGradient id="linear-gradient-3" x1="122.59" y1="68.09" x2="230.77" y2="68.09" xlink:href="#linear-gradient"/><linearGradient id="linear-gradient-4" x1="392.59" y1="68.09" x2="500.77" y2="68.09" xlink:href="#linear-gradient"/><linearGradient id="linear-gradient-5" x1="122.59" y1="172.67" x2="230.77" y2="172.67" xlink:href="#linear-gradient"/><linearGradient id="linear-gradient-6" x1="392.59" y1="172.67" x2="500.77" y2="172.67" xlink:href="#linear-gradient"/><linearGradient id="linear-gradient-7" x1="327.15" y1="224.95" x2="435.33" y2="224.95" xlink:href="#linear-gradient"/><linearGradient id="linear-gradient-8" x1="459.41" y1="224.95" x2="567.59" y2="224.95" xlink:href="#linear-gradient"/><linearGradient id="linear-gradient-9" x1="56.46" y1="224.95" x2="164.64" y2="224.95" xlink:href="#linear-gradient"/><linearGradient id="linear-gradient-10" x1="188.72" y1="224.95" x2="296.9" y2="224.95" xlink:href="#linear-gradient"/><linearGradient id="linear-gradient-11" x1="257.59" y1="120.38" x2="365.77" y2="120.38" xlink:href="#linear-gradient"/><linearGradient id="linear-gradient-12" x1="257.59" y1="277.24" x2="365.77" y2="277.24" xlink:href="#linear-gradient"/><linearGradient id="linear-gradient-13" x1="385.54" y1="277.24" x2="493.72" y2="277.24" xlink:href="#linear-gradient"/><linearGradient id="linear-gradient-14" x1="513.5" y1="277.24" x2="621.68" y2="277.24" xlink:href="#linear-gradient"/><linearGradient id="linear-gradient-15" x1="0.5" y1="277.24" x2="108.68" y2="277.24" xlink:href="#linear-gradient"/><linearGradient id="linear-gradient-16" x1="128.46" y1="277.24" x2="236.64" y2="277.24" xlink:href="#linear-gradient"/></defs><g id="Layer_2" data-name="Layer 2"><g id="Struktur_Organissi" data-name="Struktur Organissi"><rect class="cls-1" x="257.59" y="0.5" width="108.18" height="30.6"/><rect class="cls-2" x="257.59" y="52.79" width="108.18" height="30.6"/><rect class="cls-3" x="122.59" y="52.79" width="108.18" height="30.6"/><rect class="cls-4" x="392.59" y="52.79" width="108.18" height="30.6"/><rect class="cls-5" x="122.59" y="157.37" width="108.18" height="30.6"/><rect class="cls-6" x="392.59" y="157.37" width="108.18" height="30.6"/><rect class="cls-7" x="327.15" y="209.65" width="108.18" height="30.6"/><rect class="cls-8" x="459.41" y="209.65" width="108.18" height="30.6"/><rect class="cls-9" x="56.46" y="209.65" width="108.18" height="30.6"/><rect class="cls-10" x="188.72" y="209.65" width="108.18" height="30.6"/><rect class="cls-11" x="257.59" y="105.08" width="108.18" height="30.6"/><rect class="cls-12" x="257.59" y="261.94" width="108.18" height="30.6"/><rect class="cls-13" x="385.54" y="261.94" width="108.18" height="30.6"/><rect class="cls-14" x="513.5" y="261.94" width="108.18" height="30.6"/><rect class="cls-15" x="0.5" y="261.94" width="108.18" height="30.6"/><rect class="cls-16" x="128.46" y="261.94" width="108.18" height="30.6"/><line class="cls-17" x1="311.68" y1="31.1" x2="311.68" y2="52.79"/><line class="cls-17" x1="365.77" y1="68.09" x2="366.77" y2="68.09"/><line class="cls-18" x1="368.68" y1="68.09" x2="390.63" y2="68.09"/><line class="cls-17" x1="391.59" y1="68.09" x2="392.59" y2="68.09"/><line class="cls-17" x1="257.59" y1="68.09" x2="256.59" y2="68.09"/><line class="cls-18" x1="254.68" y1="68.09" x2="232.72" y2="68.09"/><line class="cls-17" x1="231.77" y1="68.09" x2="230.77" y2="68.09"/><line class="cls-17" x1="311.68" y1="83.39" x2="311.68" y2="105.08"/><line class="cls-17" x1="439.63" y1="261.94" x2="439.63" y2="251.07"/><polyline class="cls-17" points="567.59 261.94 567.59 251.06 311.68 251.06 311.68 135.68"/><polyline class="cls-17" points="54.59 261.94 54.59 251.06 311.68 251.06 311.68 261.94"/><line class="cls-17" x1="182.55" y1="261.94" x2="182.55" y2="251.07"/><polyline class="cls-17" points="446.68 187.97 446.68 198.81 513.5 198.81 513.5 209.65"/><polyline class="cls-17" points="381.24 209.65 381.24 198.81 446.68 198.81"/><polyline class="cls-17" points="176.68 187.97 176.68 198.81 242.81 198.81 242.81 209.65"/><polyline class="cls-17" points="108.68 209.65 108.68 198.81 176.68 198.81"/><polyline class="cls-17" points="365.77 120.38 446.68 120.38 446.68 157.37"/><polyline class="cls-17" points="257.59 120.38 176.68 120.38 176.68 157.37"/><text class="cls-19" transform="translate(303.26 17.89)"><tspan class="cls-20">R</tspan><tspan class="cls-21" x="4.34" y="0">A</tspan><tspan x="8.62" y="0">T</tspan></text><text class="cls-19" transform="translate(293.07 71.06)">PENGURUS</text><text class="cls-19" transform="translate(300.59 122.57)">K<tspan class="cls-22" x="4.34" y="0">E</tspan><tspan class="cls-23" x="8.4" y="0">T</tspan><tspan class="cls-24" x="12.38" y="0">U</tspan><tspan class="cls-23" x="17.28" y="0">A</tspan></text><text class="cls-19" transform="translate(427.55 71.06)">PENG<tspan class="cls-25" x="18.62" y="0">A</tspan><tspan class="cls-26" x="23.1" y="0">W</tspan><tspan class="cls-27" x="29.41" y="0">AS</tspan></text><text class="cls-19" transform="translate(425.18 175.54)">BEN<tspan class="cls-28" x="13.54" y="0">D</tspan><tspan class="cls-27" x="18.75" y="0">AHA</tspan><tspan class="cls-20" x="33.76" y="0">R</tspan><tspan class="cls-23" x="38.1" y="0">A</tspan></text><text class="cls-19" transform="translate(157.17 175.54)">SEKR<tspan class="cls-29" x="16.52" y="0">E</tspan><tspan class="cls-30" x="20.58" y="0">T</tspan><tspan x="23.96" y="0">ARIS</tspan></text><text class="cls-19" transform="translate(92.11 228.15)">GA &amp; HRD</text><text class="cls-19" transform="translate(232.03 228.15)">LEGAL</text><text class="cls-19" transform="translate(358.18 228.15)"><tspan class="cls-31">A</tspan><tspan class="cls-32" x="4.78" y="0">CC</tspan><tspan x="13.72" y="0">OUNTING</tspan></text><text class="cls-19" transform="translate(23.61 280.59)">PR &amp; ADVE<tspan class="cls-33" x="35.42" y="0">R</tspan><tspan class="cls-23" x="39.79" y="0">TISING</tspan></text><text class="cls-19" transform="translate(151.71 280.59)">BIZ D<tspan class="cls-33" x="17.7" y="0">E</tspan><tspan class="cls-23" x="21.7" y="0">VE</tspan><tspan class="cls-34" x="30.1" y="0">L</tspan><tspan x="33.57" y="0">O</tspan><tspan class="cls-35" x="39.08" y="0">P</tspan><tspan x="43.24" y="0">MENT</tspan></text><text class="cls-19" transform="translate(410.6 280.59)">IT D<tspan class="cls-33" x="12.91" y="0">E</tspan><tspan x="16.92" y="0">VE</tspan><tspan class="cls-36" x="25.32" y="0">L</tspan><tspan x="28.78" y="0">O</tspan><tspan class="cls-35" x="34.29" y="0">P</tspan><tspan class="cls-23" x="38.46" y="0">MENT</tspan></text><text class="cls-19" transform="translate(532.3 280.59)">T<tspan class="cls-37" x="3.98" y="0">R</tspan><tspan class="cls-27" x="8.32" y="0">AINING &amp; EDU</tspan><tspan class="cls-38" x="55.41" y="0">K</tspan><tspan class="cls-27" x="59.82" y="0">ASI</tspan></text><text class="cls-19" transform="translate(281.42 280.59)"><tspan class="cls-39">M</tspan><tspan x="6.35" y="0">AN</tspan><tspan class="cls-31" x="16.51" y="0">A</tspan><tspan x="21.29" y="0">GER USAHA</tspan></text><text class="cls-19" transform="translate(479.72 228.15)"><tspan class="cls-39">M</tspan><tspan x="6.35" y="0">AN</tspan><tspan class="cls-40" x="16.51" y="0">A</tspan><tspan x="21.56" y="0">JEMEN RISI</tspan><tspan class="cls-41" x="57.86" y="0">K</tspan><tspan class="cls-23" x="62.05" y="0">O</tspan></text><text class="cls-19" transform="translate(157.84 71.07)">PENASIH<tspan class="cls-42" x="29.42" y="0">A</tspan><tspan x="33.7" y="0">T</tspan></text></g></g></svg>